# AST/ASF file generated using VICON BodyLanguage
# -----------------------------------------------
:version 1.10
:name VICON
:units
  mass 1.0
  length 0.45
  angle deg
:documentation
   .ast/.asf automatically generated from VICON data using
   VICON BodyBuilder and BodyLanguage model FoxedUp or BRILLIANT.MOD
:root
   order TX TY TZ RX RY RZ
   axis XYZ
   position 0 0 0  
   orientation 0 0 0 
:bonedata
  begin
     id 1 
     name lhipjoint
     direction 0.660183 -0.676772 0.325788 
     length 2.75133 
     axis 0 0 0  XYZ
  end
  begin
     id 2 
     name lfemur
     direction 0.34202 -0.939693 0  
     length 7.70317  
     axis 0 0 20  XYZ
    dof rx ry rz
    limits (-160.0 20.0)
           (-70.0 70.0)
           (-60.0 70.0)
  end
  begin
     id 3 
     name ltibia
     direction 0.342105 -0.939662 0   
     length 7.18701   
     axis 0 0 20   XYZ
    dof rx
    limits (-10.0 170.0)
  end
  begin
     id 4 
     name lfoot
     direction 0.14163 -0.389126 0.910232   
     length 2.41719   
     axis -90 7.62852e-016 20   XYZ
    dof rx rz
    limits (-45.0 90.0)
           (-70.0 20.0)
  end
  begin
     id 5 
     name ltoes
     direction 1.53533e-011 -4.21926e-011 1   
     length 1.18611   
     axis -90 7.62852e-016 20   XYZ
    dof rx
    limits (-90.0 20.0)
  end
  begin
     id 6 
     name rhipjoint
     direction -0.6658 -0.67229 0.323631   
     length 2.76968  
     axis 0 0 0  XYZ 
  end
  begin
     id 7 
     name rfemur
     direction -0.34202 -0.939693 0   
     length 7.92547   
     axis 0 0 -20   XYZ
    dof rx ry rz
    limits (-160.0 20.0)
           (-70.0 70.0)
           (-70.0 60.0)
  end
  begin
     id 8 
     name rtibia
     direction -0.342022 -0.939692 0   
     length 7.22641   
     axis 0 0 -20   XYZ
    dof rx
    limits (-10.0 170.0)
 end
 begin
     id 9 
     name rfoot
     direction -0.105675 -0.29034 0.951071   
     length 2.48149  
     axis -90 -7.62852e-016 -20   XYZ
    dof rx rz
    limits (-45.0 90.0)
           (-20.0 70.0)
  end
  begin
     id 10 
     name rtoes
     direction -1.5349e-011 -4.21859e-011 1   
     length 1.23343   
     axis -90 -7.62852e-016 -20   XYZ
    dof rx
    limits (-90.0 20.0)
  end
  begin
     id 11 
     name lowerback
     direction 0.0104173 0.993624 -0.112266   
     length 2.00527   
     axis 0 0 0   XYZ
    dof rx ry rz
    limits (-20.0 45.0)
           (-30.0 30.0)
           (-30.0 30.0)
  end
  begin
     id 12 
     name upperback
     direction 0.00733149 0.999856 -0.0152913   
     length 2.01385   
     axis 0 0 0   XYZ
    dof rx ry rz
    limits (-20.0 45.0)
           (-30.0 30.0)
           (-30.0 30.0)
  end
  begin
     id 13 
     name thorax
     direction 0.0026304 0.999318 0.036841   
     length 2.03734   
     axis 0 0 0   XYZ
    dof rx ry rz
    limits (-20.0 45.0)
           (-30.0 30.0)
           (-30.0 30.0)
  end
  begin
     id 14 
     name lowerneck
     direction 0.0293154 0.998757 0.0403082   
     length 1.65303   
     axis 0 0 0   XYZ
    dof rx ry rz
    limits (-20.0 45.0)
           (-30.0 30.0)
           (-30.0 30.0)
  end
  begin
     id 15 
     name upperneck
     direction -0.0376619 0.998184 -0.0470083   
     length 1.60926   
     axis 0 0 0   XYZ
    dof rx ry rz
    limits (-20.0 45.0)
           (-30.0 30.0)
           (-30.0 30.0)
  end
  begin
     id 16
     name head
     direction -0.0170133 0.999635 -0.0209778  
     length 1.73625  
     axis 0 0 0   XYZ
    dof rx ry rz
    limits (-20.0 45.0)
           (-30.0 30.0)
           (-30.0 30.0)
  end
  begin
     id 17 
     name lclavicle
     direction 0.919857 0.39181 -0.0186333  
     length 3.75313  
     axis 0 0 0   XYZ
    dof ry rz
    limits (-20.0 10.0)
           (0.0 20.0)
  end
  begin
     id 18 
     name lhumerus
     direction 1 -4.48988e-011 1.44029e-027   
     length 5.49313   
     axis 180 -30 -90   XYZ
    dof rx ry rz
    limits (-60.0 90.0)
           (-90.0 90.0)
           (-90.0 90.0)
  end
  begin
     id 19
     name lradius
     direction 1 -4.48924e-011 7.46281e-027   
     length 3.29037   
     axis 180 -30 -90   XYZ
    dof rx
    limits (-10.0 170.0)
  end
  begin
     id 20
     name lwrist
     direction 1 -4.48955e-011 2.19879e-026   
     length 1.64519   
     axis -1.34358e-014 90 90   XYZ
    dof ry
    limits (-180.0 0.0)
 end
  begin
     id 21 
     name lhand
     direction 1 -4.48978e-011 4.39747e-026   
     length 0.729656   
     axis -2.80598e-014 90 90   XYZ
    dof rx rz
    limits (-90.0 90.0)
           (-45.0 45.0)
  end
  begin
     id 22 
     name lfingers
     direction 1 -4.49071e-011 8.79411e-026   
     length 0.588268   
     axis -5.61193e-014 90 90   XYZ
    dof rx
    limits (0.0 90.0)
  end
  begin
     id 23
     name lthumb
     direction 0.707107 -6.34817e-011 0.707107   
     length 0.844638   
     axis -90 45 -9.86923e-015   XYZ
    dof rx rz
    limits (-45.0 45.0)
           (-45.0 45.0)
  end
  begin
     id 24 
     name rclavicle
     direction -0.919898 0.388279 0.0550233   
     length 3.7171  
     axis 0 0 0   XYZ 
    dof ry rz
    limits (-10.0 20.0)
           (-20.0 0.0)
  end
  begin
     id 25 
     name rhumerus
     direction -1 -4.48968e-011 9.98372e-028  
     length 5.23684   
     axis 180 30 90   XYZ
    dof rx ry rz
    limits (-90.0 60.0)
           (-90.0 90.0)
           (-90.0 90.0)
  end
  begin
     id 26 
     name rradius
     direction -1 -4.48956e-011 1.01023e-026   
     length 3.38251   
     axis 180 30 90   XYZ
    dof rx
    limits (-10.0 170.0)
  end
  begin
     id 27 
     name rwrist
     direction -1 -4.4892e-011 2.19886e-026   
     length 1.69126   
     axis -1.34358e-014 -90 -90   XYZ
    dof ry
    limits (-180.0 0.0)
  end
  begin
     id 28
     name rhand
     direction -1 -4.49024e-011 4.39727e-026   
     length 0.691454   
     axis -2.80598e-014 -90 -90   XYZ
    dof rx rz
    limits (-90.0 90.0)
           (-45.0 45.0)
  end
  begin
     id 29
     name rfingers
     direction -1 -4.49097e-011 8.79388e-026   
     length 0.557468   
     axis -5.61193e-014 -90 -90   XYZ
    dof rx
    limits (0.0 90.0)
  end
  begin
     id 30
     name rthumb
     direction -0.707107 -6.34938e-011 0.707107   
     length 0.800416   
     axis -90 -45 9.86923e-015   XYZ
    dof rx rz
    limits (-45.0 45.0)
           (-45.0 45.0)
  end
:hierarchy
  begin
    root lhipjoint rhipjoint lowerback
    lhipjoint lfemur
    lfemur ltibia
    ltibia lfoot
    lfoot ltoes
    rhipjoint rfemur
    rfemur rtibia
    rtibia rfoot
    rfoot rtoes
    lowerback upperback
    upperback thorax
    thorax lowerneck lclavicle rclavicle
    lowerneck upperneck
    upperneck head
    lclavicle lhumerus
    lhumerus lradius
    lradius lwrist
    lwrist lhand lthumb
    lhand lfingers
    rclavicle rhumerus
    rhumerus rradius
    rradius rwrist
    rwrist rhand rthumb
    rhand rfingers
  end

#!OML:ASF H:\BabyWalks\Project 1\Capture day 1\Session 1\baby.ASF
:FULLY-SPECIFIED
:DEGREES
276
root -21.978 17.8634 -2.06041 -12.016 81.6756 -21.8648
lowerback 19.3066 -0.869353 -3.14492
upperback 4.86968 -1.47501 0.139575
thorax -5.44655 -0.582291 2.27291
lowerneck 0.0476769 1.4585 4.17476
upperneck -6.88053 1.92988 -2.97808
head -2.10898 0.958404 -1.7011
rclavicle -6.36111e-015 7.95139e-015
rhumerus -53.2406 12.8214 -86.7828
rradius 42.9261
rwrist -0.96008
rhand -2.95009 -14.9005
rfingers 7.12502
rthumb 22.7619 -43.5778
lclavicle -6.36111e-015 7.95139e-015
lhumerus -40.0469 -7.51692 73.2103
lradius 71.2159
lwrist 6.3166
lhand -25.3374 1.99645
lfingers 7.12502
lthumb 1.1857 31.9729
rfemur -28.8884 12.6013 17.9183
rtibia 35.6629
rfoot -21.0212 6.19065
rtoes -11.471
lfemur -11.7905 -3.63025 -15.2924
ltibia 29.5128
lfoot -24.6202 -9.26339
ltoes 4.11423
277
root -21.8424 17.867 -2.04206 -11.7718 81.889 -21.5466
lowerback 19.2183 -0.903826 -3.03295
upperback 4.84729 -1.48816 0.287382
thorax -5.42245 -0.590719 2.36871
lowerneck -0.0435241 1.33845 4.32183
upperneck -6.46246 1.74315 -3.39485
head -1.96153 0.869856 -1.85273
rclavicle 1.63003e-014 -1.27222e-014
rhumerus -53.1924 12.7476 -86.4769
rradius 42.7308
rwrist -0.624799
rhand -2.81574 -14.8885
rfingers 7.12502
rthumb 22.8908 -43.5499
lclavicle 1.63003e-014 -1.27222e-014
lhumerus -39.9306 -7.79495 73.3966
lradius 72.0629
lwrist 6.24484
lhand -25.7435 0.165934
lfingers 7.12502
lthumb 0.793523 30.1442
rfemur -29.1403 12.1101 17.9851
rtibia 34.5533
rfoot -21.1134 5.33441
rtoes -10.6949
lfemur -11.019 -3.64649 -15.501
ltibia 29.0535
lfoot -24.5146 -9.14939
ltoes 4.01091
278
root -21.7065 17.8644 -2.02321 -11.4886 82.1187 -21.1654
lowerback 19.1369 -0.941391 -2.9179
upperback 4.82433 -1.50488 0.436301
thorax -5.40231 -0.600698 2.46483
lowerneck -0.102016 1.2249 4.50832
upperneck -6.0706 1.56717 -3.87491
head -1.82965 0.786597 -2.03465
rclavicle -5.00937e-014 1.59028e-015
rhumerus -53.1389 12.674 -86.1647
rradius 42.5323
rwrist -0.315903
rhand -2.70968 -14.9353
rfingers 7.12502
rthumb 22.9926 -43.584
lclavicle -5.00937e-014 1.59028e-015
lhumerus -39.8703 -8.10226 73.6153
lradius 72.7829
lwrist 6.06331
lhand -26.256 -1.47045
lfingers 7.12502
lthumb 0.298529 28.5091
rfemur -29.3505 11.5943 18.0642
rtibia 33.5917
rfoot -21.1344 4.73156
rtoes -10.0831
lfemur -10.2723 -3.62821 -15.7047
ltibia 28.7064
lfoot -24.4562 -9.13619
ltoes 3.92911
279
root -21.5704 17.8569 -2.00333 -11.1254 82.3611 -20.679
lowerback 19.0567 -0.981013 -2.81311
upperback 4.80629 -1.52597 0.585055
thorax -5.37683 -0.612657 2.56745
lowerneck -0.1326 1.12038 4.72489
upperneck -5.70703 1.40593 -4.40449
head -1.71281 0.710661 -2.24122
rclavicle -5.4467e-014 -7.95139e-015
rhumerus -53.0666 12.6006 -85.8468
rradius 42.3221
rwrist -0.0264607
rhand -2.62447 -15.0251
rfingers 7.12502
rthumb 23.0743 -43.6635
lclavicle -5.4467e-014 -7.95139e-015
lhumerus -39.8641 -8.41852 73.8601
lradius 73.3788
lwrist 5.80063
lhand -26.8467 -2.80744
lfingers 7.12502
lthumb -0.272054 27.1721
rfemur -29.5136 11.0851 18.1441
rtibia 32.7883
rfoot -21.097 4.38353
rtoes -9.58693
lfemur -9.5773 -3.55503 -15.9018
ltibia 28.4959
lfoot -24.4264 -9.25147
ltoes 3.8433
280
root -21.4347 17.8429 -1.98249 -10.6312 82.6008 -20.0374
lowerback 18.9895 -1.01832 -2.72104
upperback 4.78658 -1.54712 0.729297
thorax -5.3597 -0.624245 2.67276
lowerneck -0.137539 1.0278 4.97057
upperneck -5.36623 1.26375 -4.97473
head -1.60832 0.644176 -2.4698
rclavicle 1.66979e-014 -6.75868e-015
rhumerus -52.981 12.5265 -85.5276
rradius 42.0953
rwrist 0.256883
rhand -2.56504 -15.1299
rfingers 7.12502
rthumb 23.1313 -43.7612
lclavicle 1.66979e-014 -6.75868e-015
lhumerus -39.9247 -8.72546 74.1228
lradius 73.8492
lwrist 5.48151
lhand -27.4632 -3.7723
lfingers 7.12502
lthumb -0.867452 26.2057
rfemur -29.6314 10.6273 18.2099
rtibia 32.1453
rfoot -20.9826 4.2878
rtoes -9.17763
lfemur -8.94386 -3.42568 -16.0881
ltibia 28.4572
lfoot -24.4256 -9.50717
ltoes 3.78604
281
root -21.2996 17.822 -1.95994 -9.99499 82.8452 -19.2266
lowerback 18.9314 -1.05514 -2.65291
upperback 4.77256 -1.57218 0.869609
thorax -5.34023 -0.637392 2.78845
lowerneck -0.125574 0.94848 5.23663
upperneck -5.04902 1.14248 -5.5734
head -1.51447 0.588113 -2.7151
rclavicle 3.18055e-015 -1.63003e-014
rhumerus -52.87 12.4567 -85.2116
rradius 41.849
rwrist 0.535028
rhand -2.53164 -15.2389
rfingers 7.12502
rthumb 23.1634 -43.8662
lclavicle 3.18055e-015 -1.63003e-014
lhumerus -40.042 -8.99747 74.3917
lradius 74.1894
lwrist 5.14578
lhand -28.0242 -4.34253
lfingers 7.12502
lthumb -1.40929 25.6326
rfemur -29.6929 10.2643 18.2489
rtibia 31.6576
rfoot -20.7387 4.40371
rtoes -8.94546
lfemur -8.39154 -3.24047 -16.2549
ltibia 28.634
lfoot -24.4598 -9.92736
ltoes 3.74676
282
root -21.1652 17.7945 -1.93529 -9.19534 83.0937 -18.2257
lowerback 18.8842 -1.09117 -2.60893
upperback 4.76481 -1.60103 1.00158
thorax -5.31895 -0.652034 2.90995
lowerneck -0.102211 0.883589 5.5265
upperneck -4.7508 1.04379 -6.19327
head -1.4283 0.54317 -2.97563
rclavicle -1.11319e-014 2.82274e-014
rhumerus -52.7344 12.386 -84.9052
rradius 41.5883
rwrist 0.81704
rhand -2.51581 -15.3529
rfingers 7.12502
rthumb 23.1786 -43.9783
lclavicle -1.11319e-014 2.82274e-014
lhumerus -40.2107 -9.21801 74.6524
lradius 74.3945
lwrist 4.83669
lhand -28.4642 -4.53597
lfingers 7.12502
lthumb -1.83424 25.4359
rfemur -29.6992 10.0303 18.2495
rtibia 31.3354
rfoot -20.3311 4.71504
rtoes -9.01823
lfemur -7.94138 -2.96571 -16.3954
ltibia 29.0638
lfoot -24.5251 -10.5389
ltoes 3.66191
283
root -21.0316 17.7614 -1.90835 -8.28982 83.3546 -17.0881
lowerback 18.8599 -1.12342 -2.571
upperback 4.75725 -1.62718 1.11914
thorax -5.3099 -0.664881 3.01949
lowerneck -0.0475253 0.823353 5.85453
upperneck -4.47442 0.955486 -6.82887
head -1.3548 0.503298 -3.25287
rclavicle 1.64991e-014 -3.57812e-015
rhumerus -52.5916 12.2706 -84.6061
rradius 41.3156
rwrist 1.12021
rhand -2.51745 -15.4529
rfingers 7.12502
rthumb 23.177 -44.0785
lclavicle 1.64991e-014 -3.57812e-015
lhumerus -40.431 -9.40446 74.8944
lradius 74.4633
lwrist 4.61405
lhand -28.6884 -4.4309
lfingers 7.12502
lthumb -2.05077 25.539
rfemur -29.6349 9.9167 18.222
rtibia 31.1912
rfoot -19.6733 5.22178
rtoes -9.0489
lfemur -7.61636 -2.59957 -16.4951
ltibia 29.7811
lfoot -24.5985 -11.3666
ltoes 3.54303
284
root -20.8992 17.7225 -1.87894 -7.31582 83.6269 -15.8524
lowerback 18.8578 -1.16061 -2.54919
upperback 4.76595 -1.66203 1.234
thorax -5.29398 -0.681623 3.13761
lowerneck -0.0175431 0.785443 6.19818
upperneck -4.20957 0.898934 -7.47979
head -1.27881 0.478947 -3.54219
rclavicle -5.56597e-014 1.98785e-014
rhumerus -52.4057 12.1541 -84.3109
rradius 41.0332
rwrist 1.44311
rhand -2.53991 -15.5282
rfingers 7.12502
rthumb 23.1555 -44.1566
lclavicle -5.56597e-014 1.98785e-014
lhumerus -40.6788 -9.49843 75.1115
lradius 74.4003
lwrist 4.52773
lhand -28.6513 -4.10729
lfingers 7.12502
lthumb -2.01496 25.8629
rfemur -29.4938 9.91469 18.1771
rtibia 31.2442
rfoot -18.7015 5.8626
rtoes -8.27678
lfemur -7.42594 -2.15397 -16.5406
ltibia 30.8143
lfoot -24.6743 -12.3971
ltoes 3.36115
285
root -20.7683 17.6799 -1.84727 -6.3402 83.9097 -14.5862
lowerback 18.8862 -1.19476 -2.51751
upperback 4.78031 -1.69149 1.33785
thorax -5.28901 -0.69531 3.23796
lowerneck 0.032577 0.754935 6.57803
upperneck -3.9729 0.855467 -8.14335
head -1.21472 0.461181 -3.8477
rclavicle -3.10104e-014 -1.03368e-014
rhumerus -52.2113 11.9898 -84.0232
rradius 40.7621
rwrist 1.77384
rhand -2.57544 -15.5986
rfingers 7.12502
rthumb 23.1214 -44.2311
lclavicle -3.10104e-014 -1.03368e-014
lhumerus -40.96 -9.53869 75.3011
lradius 74.2112
lwrist 4.59971
lhand -28.3247 -3.66797
lfingers 7.12502
lthumb -1.69951 26.305
rfemur -29.2791 10.0089 18.1299
rtibia 31.5142
rfoot -17.6598 6.58692
rtoes -6.97509
lfemur -7.38899 -1.62868 -16.5175
ltibia 32.1784
lfoot -24.6752 -13.6389
ltoes 3.11806
286
root -20.6391 17.6345 -1.81388 -5.44464 84.1969 -13.3687
lowerback 18.9492 -1.22997 -2.4747
upperback 4.81324 -1.71897 1.44277
thorax -5.28276 -0.707673 3.3334
lowerneck 0.0731 0.742289 6.96989
upperneck -3.77044 0.837067 -8.81768
head -1.15789 0.456088 -4.16423
rclavicle -1.05853e-014 -6.26172e-015
rhumerus -51.981 11.8007 -83.7284
rradius 40.5089
rwrist 2.10296
rhand -2.6268 -15.6694
rfingers 7.12502
rthumb 23.0721 -44.3081
lclavicle -1.05853e-014 -6.26172e-015
lhumerus -41.257 -9.49092 75.4727
lradius 73.9092
lwrist 4.8209
lhand -27.7234 -3.14284
lfingers 7.12502
lthumb -1.11878 26.834
rfemur -29.0038 10.154 18.1035
rtibia 32.0199
rfoot -16.6515 7.33506
rtoes -5.08184
lfemur -7.50724 -1.05028 -16.4184
ltibia 33.8694
lfoot -24.5495 -15.0556
ltoes 2.75347
287
root -20.5118 17.5875 -1.7794 -4.79303 84.4732 -12.3708
lowerback 19.046 -1.26125 -2.39422
upperback 4.86326 -1.73294 1.54792
thorax -5.27823 -0.713241 3.40536
lowerneck 0.113325 0.744479 7.37248
upperneck -3.61069 0.839396 -9.49312
head -1.11276 0.461651 -4.48853
rclavicle 3.09607e-014 -1.07344e-014
rhumerus -51.7272 11.5779 -83.4319
rradius 40.2859
rwrist 2.42083
rhand -2.70906 -15.7345
rfingers 7.12502
rthumb 22.9932 -44.3831
lclavicle 3.09607e-014 -1.07344e-014
lhumerus -41.5697 -9.37847 75.6293
lradius 73.5065
lwrist 5.15093
lhand -26.8889 -2.55833
lfingers 7.12502
lthumb -0.312747 27.4212
rfemur -28.6854 10.328 18.1234
rtibia 32.7419
rfoot -15.7882 7.95182
rtoes -2.72859
lfemur -7.79202 -0.430213 -16.229
ltibia 35.881
lfoot -24.2634 -16.6014
ltoes 2.2043
